<?xml version="1.0" encoding="UTF-8"?>
<svg version="1.1" xmlns="http://www.w3.org/2000/svg" width="500" height="357">
<path d="M0 0 C165 0 330 0 500 0 C500 117.81 500 235.62 500 357 C335 357 170 357 0 357 C0 239.19 0 121.38 0 0 Z " fill="#FEFEFE" transform="translate(0,0)"/>
<path d="M0 0 C2.49068381 2.24407702 3.84754962 4.38518654 5.26171875 7.4140625 C5.85629883 8.67863281 5.85629883 8.67863281 6.46289062 9.96875 C6.86701172 10.8453125 7.27113281 11.721875 7.6875 12.625 C8.10322266 13.50929688 8.51894531 14.39359375 8.94726562 15.3046875 C12 21.84124846 12 21.84124846 12 23 C9.36 23 6.72 23 4 23 C4.00902344 23.62261719 4.01804687 24.24523437 4.02734375 24.88671875 C3.25263143 49.03753336 -10.84694599 75.9921577 -28.26953125 92.40625 C-28.84058594 92.9321875 -29.41164063 93.458125 -30 94 C-31.2375 95.2684375 -31.2375 95.2684375 -32.5 96.5625 C-55.07271156 118.57089377 -84.67892786 129.32626364 -115.91455078 129.38061523 C-128.43190413 129.19049515 -136.68755747 126.08510516 -145.87890625 117.28125 C-149.82075151 113.04177001 -152.53977545 109.28157473 -154.6875 103.875 C-155.10386719 102.84117187 -155.52023438 101.80734375 -155.94921875 100.7421875 C-159.87355661 90.50097867 -158.95852555 79.95221854 -154.609375 70.0078125 C-148.96946052 59.46719564 -140.912063 52.7120272 -130 48 C-125.41812964 46.63782232 -120.73693617 46.9071189 -116 47 C-115.79697266 46.10861328 -115.79697266 46.10861328 -115.58984375 45.19921875 C-112.04580978 31.55362686 -103.61080837 22.04369741 -92.125 14.1875 C-79.76956031 7.16902539 -64.73388843 5.4374185 -50.88671875 8.8828125 C-37.37081695 13.34379867 -26.70174109 22.18627579 -18.71484375 33.84765625 C-16.83887994 39.49605 -19.68868676 45.21757502 -21.9375 50.375 C-22.20240234 51.00277344 -22.46730469 51.63054687 -22.74023438 52.27734375 C-24.7386991 56.86934955 -24.7386991 56.86934955 -27 58 C-27.41958984 56.42412109 -27.41958984 56.42412109 -27.84765625 54.81640625 C-30.94530168 43.74717007 -34.87426008 35.04880179 -44.65234375 28.28515625 C-54.268463 23.02109097 -65.64530956 20.85853882 -76.2734375 23.953125 C-82.03600205 26.2012366 -86.47061253 28.82819575 -91 33 C-91.66 33 -92.32 33 -93 33 C-93.2784375 33.56976563 -93.556875 34.13953125 -93.84375 34.7265625 C-94.99411795 36.98843462 -96.2345084 39.17582252 -97.5 41.375 C-101.63491891 48.87866167 -102.47838591 55.51690764 -103 64 C-103.85078125 63.67902344 -104.7015625 63.35804687 -105.578125 63.02734375 C-113.026979 60.7909869 -121.29370504 60.75083139 -128.4375 64 C-134.777325 67.67647183 -139.8015643 72.92991337 -142 80 C-142.90146628 89.79905555 -142.39770341 97.87405553 -136.3125 105.75 C-131.73283344 110.76473489 -125.31513357 113.8047713 -118.55078125 114.203125 C-90.96915422 114.72347092 -64.50100641 105.70267252 -44 87 C-43.22269531 86.30390625 -42.44539063 85.6078125 -41.64453125 84.890625 C-27.0855179 71.15854356 -18.21456622 53.04106757 -13 34 C-12.6803125 32.86046875 -12.360625 31.7209375 -12.03125 30.546875 C-11.33580952 28.03556214 -10.65710178 25.52156129 -10 23 C-12.31 23 -14.62 23 -17 23 C-11.91050003 14.88256967 -5.97345982 7.47213925 0 0 Z " fill="#040404" transform="translate(308,61)"/>
<path d="M0 0 C4.875 1.875 4.875 1.875 6 3 C6.28609016 6.29684855 6.44890147 9.59381125 6.62109375 12.8984375 C6.78399964 16.16318346 6.78399964 16.16318346 9 19 C11.6556728 19.58348752 11.6556728 19.58348752 14.625 19.6875 C16.12933594 19.78611328 16.12933594 19.78611328 17.6640625 19.88671875 C18.43492187 19.92410156 19.20578125 19.96148437 20 20 C23.47649273 29.01933454 23.45192407 39.43178831 19.9375 48.4375 C14.81488592 59.01275652 8.17452323 65.9181866 -2.63696289 70.56225586 C-9.69598872 72.8651265 -17.07461209 72.36989615 -24.41015625 72.29296875 C-25.98912653 72.28736389 -27.56810208 72.28309801 -29.14707947 72.28010559 C-33.27516433 72.26872672 -37.40292557 72.23932076 -41.53088379 72.20599365 C-45.75426864 72.1751415 -49.97770648 72.16156809 -54.20117188 72.14648438 C-62.46759536 72.11444329 -70.73375727 72.06333277 -79 72 C-75.81285283 68.81285283 -71.58861004 68.08591779 -67.359375 66.70703125 C-64.71039637 65.78442243 -62.48994841 64.70370885 -60.05175781 63.28735352 C-50.01255596 57.55743171 -41.65790641 57.08717841 -30.25 57.3125 C-14.17774888 58.07828033 -14.17774888 58.07828033 -0.11279297 51.35302734 C4.53899011 46.54301039 7.06161146 40.67256437 7.375 34 C7.09093341 27.42773216 4.58046816 21.71518781 0 17 C-2.61857695 15.21037181 -2.61857695 15.21037181 -5 14 C-4.34580901 8.93001981 -2.1453591 4.58009223 0 0 Z " fill="#040404" transform="translate(307,118)"/>
<path d="M0 0 C3.96 0 7.92 0 12 0 C15 11.5 15 11.5 15 16 C15.66 16 16.32 16 17 16 C17.04898437 15.34773437 17.09796875 14.69546875 17.1484375 14.0234375 C17.57242229 9.06720147 18.15665573 4.66980549 20 0 C23.96 0 27.92 0 32 0 C32 10.23 32 20.46 32 31 C29.36 31 26.72 31 24 31 C23.67 27.04 23.34 23.08 23 19 C22.01 22.96 21.02 26.92 20 31 C17.36 31 14.72 31 12 31 C11.01 28.03 10.02 25.06 9 22 C8.67 24.97 8.34 27.94 8 31 C5.36 31 2.72 31 0 31 C0 20.77 0 10.54 0 0 Z " fill="#0A0A0A" transform="translate(241,213)"/>
<path d="M0 0 C2.64 0 5.28 0 8 0 C8.66 3.96 9.32 7.92 10 12 C10.33 12 10.66 12 11 12 C11.66 8.04 12.32 4.08 13 0 C16.63 0 20.26 0 24 0 C24.66 3.96 25.32 7.92 26 12 C26.33 12 26.66 12 27 12 C27.66 8.04 28.32 4.08 29 0 C31.64 0 34.28 0 37 0 C36.28756166 6.68595977 35.44043824 13.34244218 34.5 20 C34.36980469 20.95261719 34.23960937 21.90523437 34.10546875 22.88671875 C33.91404297 24.24216797 33.91404297 24.24216797 33.71875 25.625 C33.60466797 26.44226563 33.49058594 27.25953125 33.37304688 28.1015625 C33 30 33 30 32 31 C28.66381769 31.14257189 25.34024394 31.04228157 22 31 C20.515 22.585 20.515 22.585 19 14 C17.06540616 17.86918767 16.46677076 20.52306601 15.875 24.75 C15.62363281 26.50570312 15.62363281 26.50570312 15.3671875 28.296875 C15.24601562 29.18890625 15.12484375 30.0809375 15 31 C11.7 31 8.4 31 5 31 C4.80664062 29.96101563 4.61328125 28.92203125 4.4140625 27.8515625 C4.15109483 26.44269841 3.88807015 25.03384496 3.625 23.625 C3.48924561 22.89563232 3.35349121 22.16626465 3.21362305 21.41479492 C2.31937865 16.63262339 1.3704926 11.8665637 0.33203125 7.11328125 C-0.04462675 4.71596387 -0.05516109 2.42284499 0 0 Z " fill="#0A0A0A" transform="translate(110,213)"/>
<path d="M0 0 C5.28 0 10.56 0 16 0 C16.17364341 5.85311876 16.30034825 11.70472417 16.38452148 17.55981445 C16.41962406 19.54933807 16.46731998 21.53868239 16.52807617 23.52758789 C16.61345001 26.39514447 16.65278867 29.26030637 16.68359375 32.12890625 C16.71972275 33.01147598 16.75585175 33.89404572 16.79307556 34.80335999 C16.79617842 39.73504542 16.20932721 42.35407709 12.69555664 45.93334961 C11.49302269 46.9899002 10.26054758 48.01338617 9 49 C8.36045883 49.5053981 7.72091766 50.0107962 7.06199646 50.5315094 C2.4377313 54 2.4377313 54 0 54 C0 36.18 0 18.36 0 0 Z " fill="#070707" transform="translate(249,100)"/>
<path d="M0 0 C4.95 0 9.9 0 15 0 C15 14.19 15 28.38 15 43 C1 50 1 50 0 50 C0 33.5 0 17 0 0 Z " fill="#000000" transform="translate(229,115)"/>
<path d="M0 0 C3.25599404 2.44199553 4.94471469 3.77164407 6.25 7.6875 C6.75625949 14.89196202 7.0782388 21.39825055 3.25 27.6875 C-0.65743925 31.33616844 -3.9725696 31.19292453 -9.1171875 31.03515625 C-12.76488986 30.55348635 -14.42913544 29.53243075 -16.75 26.6875 C-19.62833166 21.20496351 -19.29664217 14.72541122 -18.75 8.6875 C-17.38393574 4.97961129 -15.8690753 2.15676794 -12.75 -0.3125 C-8.21551342 -1.82399553 -4.37258684 -2.08691645 0 0 Z " fill="#0A0A0A" transform="translate(231.75,213.3125)"/>
<path d="M0 0 C2.536875 -0.061875 5.07375 -0.12375 7.6875 -0.1875 C8.47729248 -0.21481201 9.26708496 -0.24212402 10.08081055 -0.27026367 C14.60326123 -0.32344207 17.48685291 0.09953534 21 3 C23.69517088 6.52570692 23.33190211 10.6806781 23.3125 14.9375 C23.32861328 15.64068359 23.34472656 16.34386719 23.36132812 17.06835938 C23.36661544 22.7099238 22.10436458 25.73338301 18.328125 29.80078125 C14.8805486 31.57663017 11.52407711 31.31652502 7.75 31.1875 C5.1925 31.125625 2.635 31.06375 0 31 C0 20.77 0 10.54 0 0 Z " fill="#080808" transform="translate(187,213)"/>
<path d="M0 0 C4.95 0 9.9 0 15 0 C15 12.21 15 24.42 15 37 C5 40 5 40 0 40 C0 26.8 0 13.6 0 0 Z " fill="#000000" transform="translate(208,130)"/>
<path d="M0 0 C3.65471763 1.62431895 6.03920508 3.49120909 8 7 C8.1875 9.75 8.1875 9.75 8 12 C5.36 12 2.72 12 0 12 C-0.33 10.68 -0.66 9.36 -1 8 C-2.65 8 -4.3 8 -6 8 C-6 9.32 -6 10.64 -6 12 C-4.86111328 12.25523437 -4.86111328 12.25523437 -3.69921875 12.515625 C-2.70535156 12.75796875 -1.71148437 13.0003125 -0.6875 13.25 C0.79169922 13.59804687 0.79169922 13.59804687 2.30078125 13.953125 C5.39980412 15.15506151 6.39902551 16.12358251 8 19 C8.54046356 23.24649943 8.48376179 25.25823192 6.125 28.875 C2.80235098 32.19764902 0.73221818 32.18241245 -3.875 32.25 C-5.44894531 32.28867188 -5.44894531 32.28867188 -7.0546875 32.328125 C-10.37394927 31.95833987 -11.70758163 31.40542491 -14 29 C-14.8039548 26.30469001 -14.81419502 23.83352598 -15 21 C-12.36 21 -9.72 21 -7 21 C-6.67 22.32 -6.34 23.64 -6 25 C-4.35 25 -2.7 25 -1 25 C-1 23.68 -1 22.36 -1 21 C-2.13888672 20.76216797 -2.13888672 20.76216797 -3.30078125 20.51953125 C-11.39872088 18.61845852 -11.39872088 18.61845852 -14.1875 15.75 C-15.23667008 12.1989628 -15.52649535 9.68546743 -15 6 C-10.48807847 0.53820025 -6.99187132 -0.75297076 0 0 Z " fill="#0B0B0B" transform="translate(176,212)"/>
<path d="M0 0 C3.63 0 7.26 0 11 0 C14.02609005 10.29101618 16.73601191 20.32213049 18 31 C15.36 31 12.72 31 10 31 C9.505 28.525 9.505 28.525 9 26 C6.69 25.67 4.38 25.34 2 25 C2 26.98 2 28.96 2 31 C-0.97 31 -3.94 31 -7 31 C-4.71286417 20.65564453 -2.40618638 10.31743552 0 0 Z " fill="#070707" transform="translate(338,213)"/>
<path d="M0 0 C2.31 0 4.62 0 7 0 C7.33 2.97 7.66 5.94 8 9 C9.65 6.03 11.3 3.06 13 0 C15.97 0 18.94 0 22 0 C20.95099192 3.05960689 20.02814646 4.96944098 17.8125 7.375 C15.66110516 9.91370928 15.66110516 9.91370928 16.1953125 13.234375 C17.03231777 17.15123459 18.30771301 20.28245736 20.0625 23.875 C23 29.94352941 23 29.94352941 23 31 C20.03 31 17.06 31 14 31 C13.73445313 30.28972656 13.46890625 29.57945312 13.1953125 28.84765625 C12.84210938 27.92855469 12.48890625 27.00945312 12.125 26.0625 C11.60292969 24.68771484 11.60292969 24.68771484 11.0703125 23.28515625 C10.2180914 20.85058944 10.2180914 20.85058944 8 20 C7.67 23.63 7.34 27.26 7 31 C4.69 31 2.38 31 0 31 C0 20.77 0 10.54 0 0 Z " fill="#040404" transform="translate(359,213)"/>
<path d="M0 0 C15 0 15 0 20 3 C22.47975003 6.71962504 22.75454328 9.69180125 22 14 C19.61795167 18.44649022 19.61795167 18.44649022 17 20 C13.50885029 20.50101996 10.55582737 20.28446619 7 20 C7 23.63 7 27.26 7 31 C4.69 31 2.38 31 0 31 C0 20.77 0 10.54 0 0 Z " fill="#040404" transform="translate(285,213)"/>
<path d="M0 0 C6.27 0 12.54 0 19 0 C19 1.98 19 3.96 19 6 C15.04 6 11.08 6 7 6 C7 7.98 7 9.96 7 12 C10.3 12 13.6 12 17 12 C17 13.98 17 15.96 17 18 C13.7 18 10.4 18 7 18 C7 19.98 7 21.96 7 24 C10.96 24 14.92 24 19 24 C19 26.31 19 28.62 19 31 C12.73 31 6.46 31 0 31 C0 20.77 0 10.54 0 0 Z " fill="#030303" transform="translate(310,213)"/>
<path d="M0 0 C1.10589478 0.00616333 1.10589478 0.00616333 2.23413086 0.01245117 C3.0352832 0.01438477 3.83643555 0.01631836 4.66186523 0.01831055 C5.49911133 0.03055664 6.33635742 0.04280273 7.19897461 0.05541992 C8.46064453 0.05638672 8.46064453 0.05638672 9.74780273 0.05737305 C15.99624277 0.10268808 15.99624277 0.10268808 17.13647461 1.24291992 C17.23654469 4.06548484 17.27523059 6.85815182 17.26147461 9.68041992 C17.26727539 10.86474609 17.26727539 10.86474609 17.27319336 12.07299805 C17.26310528 17.98965859 17.26310528 17.98965859 16.13647461 20.24291992 C13.17790052 20.29671218 10.22029739 20.33649085 7.26147461 20.36791992 C5.99883789 20.39305664 5.99883789 20.39305664 4.71069336 20.41870117 C3.50219727 20.42836914 3.50219727 20.42836914 2.26928711 20.43823242 C1.52565918 20.44870605 0.78203125 20.45917969 0.01586914 20.4699707 C-1.86352539 20.24291992 -1.86352539 20.24291992 -3.86352539 18.24291992 C-4.06204641 15.53369192 -4.14192016 12.94988813 -4.11352539 10.24291992 C-4.12125977 9.50557617 -4.12899414 8.76823242 -4.13696289 8.00854492 C-4.1096898 0.53571877 -4.1096898 0.53571877 0 0 Z " fill="#010101" transform="translate(319.863525390625,114.757080078125)"/>
<path d="M0 0 C2.31 0 4.62 0 7 0 C7 10.23 7 20.46 7 31 C4.69 31 2.38 31 0 31 C0 20.77 0 10.54 0 0 Z " fill="#000000" transform="translate(150,213)"/>
<path d="M0 0 C1.50046875 0.00386719 1.50046875 0.00386719 3.03125 0.0078125 C4.0315625 0.00523438 5.031875 0.00265625 6.0625 0 C8.53125 0.1328125 8.53125 0.1328125 9.53125 1.1328125 C9.62976171 2.96397133 9.66097629 4.79901183 9.65625 6.6328125 C9.65882813 7.633125 9.66140625 8.6334375 9.6640625 9.6640625 C9.53125 12.1328125 9.53125 12.1328125 8.53125 13.1328125 C6.70009117 13.23132421 4.86505067 13.26253879 3.03125 13.2578125 C2.0309375 13.26039062 1.030625 13.26296875 0 13.265625 C-2.46875 13.1328125 -2.46875 13.1328125 -3.46875 12.1328125 C-3.56726171 10.30165367 -3.59847629 8.46661317 -3.59375 6.6328125 C-3.59632813 5.6325 -3.59890625 4.6321875 -3.6015625 3.6015625 C-3.42265191 0.27593033 -3.32563217 0.17891059 0 0 Z " fill="#101010" transform="translate(340.46875,101.8671875)"/>
<path d="M0 0 C2.5 -0.3125 2.5 -0.3125 5 0 C7 2 7 2 7.265625 4.8984375 C7.26046875 6.04570312 7.2553125 7.19296875 7.25 8.375 C7.25515625 9.51710937 7.2603125 10.65921875 7.265625 11.8359375 C7.01510533 14.82006883 6.55829924 16.48940678 5 19 C3.35 19 1.7 19 0 19 C-2.07128547 15.58895449 -2.26961411 12.89464724 -2.25 8.9375 C-2.25515625 7.89464844 -2.2603125 6.85179687 -2.265625 5.77734375 C-2 3 -2 3 0 0 Z " fill="#F5F5F5" transform="translate(223,219)"/>
<path d="M0 0 C1.65 0 3.3 0 5 0 C5.83719383 2.29032311 6.6698929 4.58210957 7.5 6.875 C7.73847656 7.52597656 7.97695312 8.17695313 8.22265625 8.84765625 C10 13.7734375 10 13.7734375 10 16 C8.68 16 7.36 16 6 16 C6 15.34 6 14.68 6 14 C3.69 14 1.38 14 -1 14 C-1 14.66 -1 15.32 -1 16 C-1.99 16 -2.98 16 -4 16 C-3.39891424 10.34979382 -1.92471317 5.33835539 0 0 Z " fill="#1D1D1D" transform="translate(217,277)"/>
<path d="M0 0 C1.65 0 3.3 0 5 0 C5.83719383 2.29032311 6.6698929 4.58210957 7.5 6.875 C7.73847656 7.52597656 7.97695312 8.17695313 8.22265625 8.84765625 C10 13.7734375 10 13.7734375 10 16 C8.68 16 7.36 16 6 16 C6 15.34 6 14.68 6 14 C3.69 14 1.38 14 -1 14 C-1 14.66 -1 15.32 -1 16 C-1.99 16 -2.98 16 -4 16 C-3.39891424 10.34979382 -1.92471317 5.33835539 0 0 Z " fill="#1D1D1D" transform="translate(178,277)"/>
<path d="M0 0 C4 1 4 1 5.265625 2.62890625 C6.17708333 4.41927083 7.08854167 6.20963542 8 8 C8.33 5.36 8.66 2.72 9 0 C9.99 0 10.98 0 12 0 C12 5.28 12 10.56 12 16 C8 15 8 15 6.734375 13.37109375 C5.82291667 11.58072917 4.91145833 9.79036458 4 8 C3.67 10.64 3.34 13.28 3 16 C2.01 16 1.02 16 0 16 C0 10.72 0 5.44 0 0 Z " fill="#050505" transform="translate(194,277)"/>
<path d="M0 0 C1.98 0 3.96 0 6 0 C8.22264871 3.33397306 8.29675463 4.59514891 8.3125 8.5 C8.32925781 9.4590625 8.34601563 10.418125 8.36328125 11.40625 C8 14 8 14 6.79296875 15.84375 C5 17 5 17 0 17 C0 11.39 0 5.78 0 0 Z " fill="#F4F4F4" transform="translate(195,220)"/>
<path d="M0 0 C3.0625 0.25 3.0625 0.25 6.0625 2.25 C6.0625 3.24 6.0625 4.23 6.0625 5.25 C3.39583333 4.58333333 0.72916667 3.91666667 -1.9375 3.25 C-1.9375 4.24 -1.9375 5.23 -1.9375 6.25 C-0.2359375 6.7140625 -0.2359375 6.7140625 1.5 7.1875 C5.0625 8.25 5.0625 8.25 6.0625 9.25 C6.25 11.6875 6.25 11.6875 6.0625 14.25 C4.0625 16.25 4.0625 16.25 0.5625 16.5 C-2.9375 16.25 -2.9375 16.25 -4.9375 14.25 C-4.9375 13.26 -4.9375 12.27 -4.9375 11.25 C-2.2975 11.91 0.3425 12.57 3.0625 13.25 C1.24570345 11.24196171 -0.17861255 10.12664009 -2.625 8.875 C-3.388125 8.33875 -4.15125 7.8025 -4.9375 7.25 C-5.375 4.6875 -5.375 4.6875 -4.9375 2.25 C-2.9375 0.25 -2.9375 0.25 0 0 Z " fill="#141414" transform="translate(319.9375,276.75)"/>
<path d="M0 0 C0.99 0.66 1.98 1.32 3 2 C3 2.99 3 3.98 3 5 C0.33333333 4.33333333 -2.33333333 3.66666667 -5 3 C-5 6.3 -5 9.6 -5 13 C-3.8553125 12.505 -3.8553125 12.505 -2.6875 12 C0 11 0 11 3 11 C2.625 12.9375 2.625 12.9375 2 15 C-0.79870027 16.39935013 -2.90498792 16.25265405 -6 16 C-8.29644567 14.34354738 -8.92605662 13.44076056 -9.3984375 10.625 C-9.39070313 9.75875 -9.38296875 8.8925 -9.375 8 C-9.38273437 7.13375 -9.39046875 6.2675 -9.3984375 5.375 C-8.47427819 -0.13371433 -5.01944642 -0.522859 0 0 Z " fill="#212121" transform="translate(305,277)"/>
<path d="M0 0 C3.96 0 7.92 0 12 0 C12 0.99 12 1.98 12 3 C10.68 3 9.36 3 8 3 C8 7.29 8 11.58 8 16 C6.68 16 5.36 16 4 16 C4 11.71 4 7.42 4 3 C2.68 3 1.36 3 0 3 C0 2.01 0 1.02 0 0 Z " fill="#242424" transform="translate(268,277)"/>
<path d="M0 0 C1.32 0.33 2.64 0.66 4 1 C4.33 2.32 4.66 3.64 5 5 C5.66 5 6.32 5 7 5 C7.66 3.35 8.32 1.7 9 0 C9.99 0 10.98 0 12 0 C11.71125 0.78375 11.4225 1.5675 11.125 2.375 C9.73239716 6.8622758 8.85728019 11.385279 8 16 C6.68 16 5.36 16 4 16 C3.87882813 15.34773438 3.75765625 14.69546875 3.6328125 14.0234375 C2.71056011 9.21353658 1.69832723 4.60974535 0 0 Z " fill="#1D1D1D" transform="translate(250,277)"/>
<path d="M0 0 C0.99 0 1.98 0 3 0 C3 4.29 3 8.58 3 13 C5.64 13 8.28 13 11 13 C11 13.99 11 14.98 11 16 C7.37 16 3.74 16 0 16 C0 10.72 0 5.44 0 0 Z " fill="#070707" transform="translate(233,277)"/>
<path d="M0 0 C1.32 0 2.64 0 4 0 C4 5.28 4 10.56 4 16 C2.68 16 1.36 16 0 16 C0 10.72 0 5.44 0 0 Z " fill="#333333" transform="translate(286,277)"/>
<path d="M0 0 C2.375 -0.125 2.375 -0.125 5 0 C5.66 0.66 6.32 1.32 7 2 C6.44444444 6.55555556 6.44444444 6.55555556 5 8 C3.33382885 8.04063832 1.66611905 8.042721 0 8 C0 5.36 0 2.72 0 0 Z " fill="#DFDFDF" transform="translate(292,219)"/>
<path d="M0 0 C1.2065625 0.0309375 1.2065625 0.0309375 2.4375 0.0625 C3.0975 2.3725 3.7575 4.6825 4.4375 7.0625 C2.1275 6.7325 -0.1825 6.4025 -2.5625 6.0625 C-2.94468767 4.40635343 -3.27645102 2.73792976 -3.5625 1.0625 C-2.5625 0.0625 -2.5625 0.0625 0 0 Z " fill="#EEEEEE" transform="translate(172.5625,218.9375)"/>
<path d="M0 0 C1.98 0 3.96 0 6 0 C6 2.31 6 4.62 6 7 C4.02 7 2.04 7 0 7 C0 4.69 0 2.38 0 0 Z " fill="#090909" transform="translate(329,95)"/>
<path d="M0 0 C2.31 0.66 4.62 1.32 7 2 C6.67 3.65 6.34 5.3 6 7 C4.33388095 7.042721 2.66617115 7.04063832 1 7 C0 6 0 6 -0.0625 2.9375 C-0.041875 1.968125 -0.02125 0.99875 0 0 Z " fill="#EFEFEF" transform="translate(169,231)"/>
<path d="M0 0 C0 0.66 0 1.32 0 2 C-3.71599191 2.20086443 -4.77208445 2.1519437 -8 0 C-8.33 0.66 -8.66 1.32 -9 2 C-9 1.01 -9 0.02 -9 -1 C-5.38055101 -2.34053666 -3.42632833 -1.61798838 0 0 Z " fill="#D5D5D5" transform="translate(323,288)"/>
<path d="M0 0 C1.65 0.33 3.3 0.66 5 1 C5.33 2.32 5.66 3.64 6 5 C3.61435923 4.42415568 1.33317216 3.77772405 -1 3 C-0.67 2.01 -0.34 1.02 0 0 Z " fill="#191919" transform="translate(302,277)"/>
<path d="M0 0 C3.37462715 0.54723683 5.08235 1.0549 8 3 C7.34 3 6.68 3 6 3 C5.67 3.66 5.34 4.32 5 5 C2.525 4.01 2.525 4.01 0 3 C0 2.01 0 1.02 0 0 Z " fill="#E2E2E2" transform="translate(318,280)"/>
<path d="M0 0 C2 2 2 2 2.125 5.625 C2.08375 6.73875 2.0425 7.8525 2 9 C1.01 9 0.02 9 -1 9 C-0.67 6.03 -0.34 3.06 0 0 Z " fill="#D5D5D5" transform="translate(343,222)"/>
<path d="M0 0 C2.35953094 2.35953094 2.49141413 3.77895617 3 7 C1.68 7 0.36 7 -1 7 C-0.67 4.69 -0.34 2.38 0 0 Z " fill="#D7D7D7" transform="translate(219,281)"/>
<path d="M0 0 C2.35953094 2.35953094 2.49141413 3.77895617 3 7 C1.68 7 0.36 7 -1 7 C-0.67 4.69 -0.34 2.38 0 0 Z " fill="#D7D7D7" transform="translate(180,281)"/>
</svg>
